<?xml version="1.0" encoding="utf-8"?>
<!-- Generator: Adobe Illustrator 22.0.0, SVG Export Plug-In . SVG Version: 6.00 Build 0)  -->
<svg xmlns="http://www.w3.org/2000/svg" xmlns:xlink="http://www.w3.org/1999/xlink" version="1.1" id="Layer_1" x="0px" y="0px" viewBox="0 0 500 500" style="enable-background:new 0 0 500 500;" xml:space="preserve" width="512" height="512">
<style type="text/css">
	.st0{fill:#83E1E5;}
	.st1{fill:#AAB1BA;}
	.st2{fill:#ECF4F7;}
	.st3{fill:#FDDF7F;}
	.st4{fill:#1C1D21;}
	.st5{fill:#FFFFFF;}
</style>
<g>
	<g>
		<path class="st2" d="M291.295,395.95h-80.382c-4.475,0-8.103,3.628-8.103,8.103v42.565c0,5.084,4.122,9.206,9.206,9.206h78.177    c5.084,0,9.206-4.122,9.206-9.206v-42.565C299.398,399.578,295.771,395.95,291.295,395.95z"/>
	</g>
</g>
<g>
	<g>
		<path class="st1" d="M262.372,495h-22.535c-7.711,0-13.962-6.251-13.962-13.962v-25.214h50.458v25.214    C276.333,488.749,270.083,495,262.372,495z"/>
	</g>
</g>
<g>
	<g>
		<path class="st3" d="M285.597,376.045c0-16.589,9.593-31.827,24.752-38.566c53.861-23.945,90.857-78.95,88.225-142.279    c-3.257-78.412-67.979-141.258-146.451-142.353c-83.102-1.16-150.831,65.857-150.831,148.692    c0,61.222,36.997,113.799,89.852,136.602c15.554,6.71,25.637,22.01,25.637,38.95v18.859h68.814V376.045z"/>
	</g>
</g>
<g>
	<g>
		<path class="st0" d="M362.518,181.89L362.518,181.89c-6.013-6.013-15.761-6.013-21.774,0l-50.276,50.276c0,0,0,0.001,0,0.001    c-1.528-21.023-19.056-37.607-40.468-37.607c-21.412,0-38.94,16.584-40.468,37.606c0,0,0-0.001,0-0.001l-49.991-49.991    c-6.102-6.102-16.278-6.291-22.265-0.075c-5.806,6.028-5.737,15.621,0.206,21.564l54.693,54.693    c4.135,4.135,6.458,9.744,6.458,15.592v68.371c11.222,7.831,18.15,20.736,18.15,34.772v18.859h68.814v-19.905    c0-13.015,5.906-25.195,15.77-33.095v-69.002c0-5.848,2.323-11.457,6.458-15.592l54.693-54.693    C368.531,197.651,368.531,187.902,362.518,181.89z"/>
	</g>
</g>
<path class="st4" d="M234.167,15.833c0-2.761,2.239-5,5-5H245V5c0-2.761,2.239-5,5-5s5,2.239,5,5v5.833h5.833c2.761,0,5,2.239,5,5  s-2.239,5-5,5H255v5.833c0,2.761-2.239,5-5,5s-5-2.239-5-5v-5.833h-5.833C236.406,20.833,234.167,18.594,234.167,15.833z   M76.328,160.976h-5.833v-5.833c0-2.761-2.239-5-5-5s-5,2.239-5,5v5.833h-5.833c-2.761,0-5,2.239-5,5s2.239,5,5,5h5.833v5.833  c0,2.761,2.239,5,5,5s5-2.239,5-5v-5.833h5.833c2.761,0,5-2.239,5-5S79.089,160.976,76.328,160.976z M445.337,160.976h-5.833v-5.833  c0-2.761-2.239-5-5-5s-5,2.239-5,5v5.833h-5.833c-2.761,0-5,2.239-5,5s2.239,5,5,5h5.833v5.833c0,2.761,2.239,5,5,5s5-2.239,5-5  v-5.833h5.833c2.761,0,5-2.239,5-5S448.099,160.976,445.337,160.976z M403.571,194.993c1.313,31.593-6.884,62.297-23.703,88.795  c-16.346,25.753-39.683,45.899-67.487,58.26c-13.233,5.882-21.784,19.227-21.784,33.997v14.905h0.698  c7.225,0,13.103,5.878,13.103,13.103v16.834h9.861c2.761,0,5,2.239,5,5s-2.239,5-5,5h-9.861v15.731  c0,7.833-6.373,14.206-14.206,14.206h-8.859v20.214c0,10.456-8.506,18.962-18.962,18.962h-22.535  c-10.456,0-18.961-8.506-18.961-18.962v-20.214h-8.859c-7.833,0-14.206-6.373-14.206-14.206v-15.731h-12.07c-2.761,0-5-2.239-5-5  s2.239-5,5-5h12.07v-16.834c0-7.225,5.878-13.103,13.103-13.103h0.87v-13.859c0-14.945-8.878-28.431-22.618-34.358  c-56.417-24.34-92.872-79.761-92.872-141.193c0-41.462,16.26-80.332,45.785-109.447c29.519-29.11,68.612-44.827,110.116-44.244  c39.242,0.547,76.477,16.03,104.846,43.596C385.417,119.019,401.942,155.793,403.571,194.993z M271.333,460.824h-40.458v20.214  c0,4.941,4.02,8.962,8.961,8.962h22.535c4.941,0,8.962-4.021,8.962-8.962V460.824z M294.398,430.887h-86.588v15.731  c0,2.319,1.887,4.206,4.206,4.206h13.859h50.458h13.859c2.319,0,4.206-1.887,4.206-4.206V430.887z M291.295,400.95h-5.698h-68.814  h-5.87c-1.711,0-3.103,1.392-3.103,3.103v16.834h86.588v-16.834C294.398,402.342,293.006,400.95,291.295,400.95z M393.58,195.408  c-3.16-76.074-65.326-136.498-141.525-137.561C213.25,57.303,176.698,71.996,149.1,99.212  c-27.604,27.222-42.807,63.563-42.807,102.327c0,57.437,34.084,109.254,86.833,132.011c17.409,7.509,28.657,24.6,28.657,43.54  v13.859h58.814v-14.905c0-18.717,10.881-35.648,27.721-43.134C362.581,308.788,396.047,254.814,393.58,195.408z M366.054,178.354  c7.953,7.953,7.953,20.893,0,28.845l-54.693,54.692c-3.221,3.22-4.994,7.502-4.994,12.056v50.681c0,2.761-2.239,5-5,5s-5-2.239-5-5  v-50.681c0-7.225,2.814-14.018,7.923-19.127l54.693-54.692c4.054-4.054,4.054-10.649,0-14.703s-10.649-4.053-14.703,0  l-48.705,48.705c0.009,0.347,0.014,0.685,0.014,1.019c0,0.786-0.02,1.566-0.059,2.343c-1.223,24.054-21.177,43.247-45.529,43.247  c-24.352,0-44.306-19.193-45.529-43.247c-0.039-0.776-0.059-1.557-0.059-2.343c0-0.334,0.004-0.672,0.014-1.019l-48.42-48.42  c-2.056-2.056-4.916-3.208-7.873-3.192c-2.809,0.026-5.386,1.109-7.255,3.05c-3.901,4.05-3.837,10.581,0.141,14.56l54.693,54.692  c5.109,5.109,7.923,11.902,7.923,19.127v50.049c0,2.761-2.239,5-5,5s-5-2.239-5-5v-50.049c0-4.554-1.773-8.836-4.994-12.056  l-54.693-54.693c-7.805-7.806-7.926-20.621-0.271-28.568c3.748-3.89,8.849-6.061,14.364-6.112c5.619-0.03,11.095,2.178,15.038,6.121  l43.295,43.295c5.679-18.712,23.086-32.374,43.629-32.374s37.95,13.661,43.629,32.374l43.58-43.58  C345.162,170.402,358.101,170.401,366.054,178.354z M214.519,232.518c0,0.004,0,0.007,0,0.011c-0.031,0.43-0.054,0.823-0.071,1.198  c-0.019,0.472-0.036,0.945-0.036,1.422c0,19.624,15.965,35.589,35.589,35.589c16.903,0,31.082-11.849,34.691-27.675  c0.141-0.619,0.267-1.244,0.375-1.875c0.337-1.964,0.523-3.98,0.523-6.04c0-0.477-0.017-0.95-0.036-1.422  c-0.017-0.376-0.04-0.769-0.071-1.198c0-0.003,0-0.007,0-0.011c-1.353-18.398-16.744-32.958-35.481-32.958  S215.871,214.12,214.519,232.518z M167.131,420.887h-4.335c-2.761,0-5,2.239-5,5s2.239,5,5,5h4.335c2.761,0,5-2.239,5-5  S169.892,420.887,167.131,420.887z M337.204,420.887h-4.335c-2.761,0-5,2.239-5,5s2.239,5,5,5h4.335c2.761,0,5-2.239,5-5  S339.965,420.887,337.204,420.887z"/>
</svg>
