<svg id="Line" enable-background="new 0 0 96 96" height="512" viewBox="0 0 96 96" width="512" xmlns="http://www.w3.org/2000/svg"><circle cx="17" cy="48" fill="#dfdddc" r="14"/><circle cx="48" cy="41" fill="#6ebaed" r="6"/><path d="m57 53v5c0 .55-.45 1-1 1h-16c-.55 0-1-.45-1-1v-5c0-2.99 2.19-5.47 5.05-5.92.31-.05.62-.08.95-.08h6c.33 0 .64.03.95.08 2.86.45 5.05 2.93 5.05 5.92z" fill="#6ebaed"/><path d="m90.703 38.075c-2.806-2.811-7.46-2.541-10.165.367l-.805.866c-.396.425-1.069.425-1.464 0l-.805-.866c-2.705-2.908-7.359-3.178-10.165-.367-3 3.005-3.062 8.057-.187 11.147l1.699 1.826 9.459 10.166c.396.425 1.069.425 1.464 0l9.459-10.166 1.699-1.826c2.873-3.091 2.81-8.142-.189-11.147z" fill="#ef6662"/><path d="m36 3h22l5 5v22c0 .552-.448 1-1 1h-26c-.552 0-1-.448-1-1v-26c0-.552.448-1 1-1z" fill="#e6e5e4"/><path d="m51.95 47.08-3.08 5.4c-.39.67-1.35.67-1.74 0l-3.08-5.4c.31-.05.62-.08.95-.08h6c.33 0 .64.03.95.08z" fill="#e6e5e4"/><path d="m51 69h-6c-1.657 0-3-1.343-3-3v-2c0-.552.448-1 1-1h10c.552 0 1 .448 1 1v2c0 1.657-1.343 3-3 3z" fill="#f2be07"/><path d="m64 92c1.105 0 2-.895 2-2 0-1.105-.895-2-2-2-1.105 0-2-.895-2-2v-7c0-5.523-4.477-10-10-10h-8c-5.523 0-10 4.477-10 10v7c0 1.105-.895 2-2 2-1.105 0-2 .895-2 2 0 1.105.895 2 2 2z" fill="#f2be07"/><g fill="#316596"><path d="m65.796 82.576c-.358 0-.705-.193-.885-.532-.259-.487-.072-1.093.416-1.352.286-.151.569-.307.851-.467.477-.273 1.089-.105 1.363.375.273.479.105 1.09-.375 1.363-.299.17-.6.335-.903.496-.149.08-.309.117-.467.117zm4.25-2.629c-.312 0-.62-.146-.815-.42-.32-.45-.216-1.074.234-1.395.264-.188.525-.38.784-.575.44-.335 1.067-.246 1.4.195s.245 1.068-.195 1.4c-.274.207-.55.41-.829.608-.176.127-.379.187-.579.187zm3.867-3.162c-.268 0-.534-.106-.731-.318-.377-.404-.354-1.037.05-1.413.237-.221.471-.445.701-.673.394-.388 1.025-.382 1.415.009.388.394.384 1.026-.009 1.415-.244.241-.493.478-.744.712-.193.179-.438.268-.682.268zm3.421-3.639c-.224 0-.449-.075-.636-.229-.426-.352-.486-.981-.135-1.408.206-.249.409-.501.608-.758.339-.435.968-.516 1.403-.175.436.339.515.967.175 1.403-.211.271-.426.538-.644.803-.197.239-.482.364-.771.364zm2.918-4.057c-.182 0-.365-.049-.53-.152-.468-.293-.609-.91-.316-1.379.172-.273.34-.551.504-.83.278-.477.892-.637 1.368-.356.477.279.636.892.356 1.368-.174.297-.352.59-.533.881-.191.302-.516.468-.849.468z"/><path d="m28.766 81.771c-.172 0-.346-.044-.505-.138-.297-.174-.59-.352-.881-.533-.468-.293-.609-.91-.316-1.379.295-.468.912-.609 1.379-.316.273.172.551.34.83.504.477.279.636.892.356 1.368-.186.318-.521.494-.863.494zm-4.132-2.81c-.214 0-.431-.068-.613-.211-.271-.211-.538-.426-.803-.644-.426-.352-.486-.981-.135-1.408.352-.425.98-.486 1.408-.135.249.206.501.409.758.608.436.339.514.967.175 1.403-.197.254-.492.387-.79.387zm-3.727-3.325c-.258 0-.516-.1-.712-.297-.241-.244-.478-.493-.712-.744-.377-.404-.354-1.037.05-1.413.403-.376 1.035-.356 1.413.05.221.237.445.471.673.701.388.394.384 1.026-.009 1.415-.195.192-.449.288-.703.288zm-3.261-3.784c-.304 0-.603-.137-.799-.397-.207-.274-.41-.55-.608-.829-.32-.45-.216-1.074.234-1.395.45-.319 1.074-.216 1.395.234.188.264.38.525.575.784.333.441.245 1.068-.195 1.4-.182.137-.393.203-.602.203zm-2.74-4.18c-.348 0-.686-.182-.87-.506-.17-.299-.335-.6-.496-.903-.259-.487-.072-1.093.416-1.352.484-.26 1.092-.073 1.352.416.151.286.307.569.467.851.273.479.105 1.09-.375 1.363-.156.089-.326.131-.494.131z"/><path d="m15.228 29.767c-.172 0-.346-.044-.505-.138-.477-.279-.636-.892-.356-1.368.174-.297.352-.59.533-.881.295-.468.911-.609 1.379-.316s.609.91.316 1.379c-.172.273-.34.551-.504.83-.186.317-.521.494-.863.494zm2.81-4.132c-.214 0-.431-.068-.613-.211-.436-.339-.515-.967-.175-1.403.211-.271.426-.538.644-.803.353-.425.981-.486 1.408-.135.426.352.486.981.135 1.408-.206.249-.409.501-.608.758-.198.253-.493.386-.791.386zm3.326-3.728c-.258 0-.516-.1-.712-.297-.388-.394-.384-1.026.009-1.415.244-.241.493-.478.744-.712.403-.377 1.036-.354 1.413.05s.354 1.037-.05 1.413c-.237.221-.471.445-.701.673-.195.193-.449.288-.703.288zm3.785-3.262c-.304 0-.603-.137-.799-.397-.333-.441-.245-1.068.195-1.4.274-.207.55-.41.829-.608.451-.319 1.074-.216 1.395.234s.216 1.074-.234 1.395c-.264.188-.525.38-.784.575-.181.135-.392.201-.602.201zm4.18-2.74c-.348 0-.686-.182-.87-.506-.273-.479-.105-1.09.375-1.363.299-.17.6-.335.903-.496.483-.259 1.093-.072 1.352.416.259.487.072 1.093-.416 1.352-.286.151-.569.307-.851.467-.155.088-.325.13-.493.13z"/><path d="m81.577 31.205c-.358 0-.705-.193-.885-.532-.151-.286-.307-.569-.467-.851-.273-.479-.105-1.09.375-1.363.476-.272 1.089-.106 1.363.375.17.299.335.6.496.903.259.487.072 1.093-.416 1.352-.147.079-.308.116-.466.116zm-2.629-4.25c-.312 0-.62-.146-.815-.42-.188-.264-.38-.525-.575-.784-.333-.441-.245-1.068.195-1.4.441-.336 1.067-.246 1.4.195.207.274.41.55.608.829.32.45.216 1.074-.234 1.395-.175.125-.379.185-.579.185zm-3.163-3.868c-.268 0-.534-.106-.731-.318-.221-.237-.445-.471-.673-.701-.388-.394-.384-1.026.009-1.415.394-.388 1.025-.382 1.415.009.241.244.478.493.712.744.377.404.354 1.037-.05 1.413-.193.179-.438.268-.682.268zm-3.64-3.422c-.224 0-.449-.075-.636-.229-.249-.206-.501-.409-.758-.608-.436-.339-.514-.967-.175-1.403.339-.434.967-.516 1.403-.175.271.211.538.426.803.644.426.352.486.981.135 1.408-.198.239-.483.363-.772.363zm-4.057-2.918c-.182 0-.365-.049-.53-.152-.273-.172-.551-.34-.83-.504-.477-.279-.636-.892-.356-1.368s.892-.638 1.368-.356c.297.174.59.352.881.533.468.293.609.91.316 1.379-.191.302-.516.468-.849.468z"/><path d="m43 13c-.256 0-.512-.098-.707-.293l-2-2c-.391-.391-.391-1.023 0-1.414s1.023-.391 1.414 0l1.293 1.293 3.293-3.293c.391-.391 1.023-.391 1.414 0s.391 1.023 0 1.414l-4 4c-.195.195-.451.293-.707.293z"/><path d="m43 20c-.256 0-.512-.098-.707-.293l-2-2c-.391-.391-.391-1.023 0-1.414s1.023-.391 1.414 0l1.293 1.293 3.293-3.293c.391-.391 1.023-.391 1.414 0s.391 1.023 0 1.414l-4 4c-.195.195-.451.293-.707.293z"/><path d="m58 11h-8c-.553 0-1-.447-1-1s.447-1 1-1h8c.553 0 1 .447 1 1s-.447 1-1 1z"/><path d="m58 19h-8c-.553 0-1-.447-1-1s.447-1 1-1h8c.553 0 1 .447 1 1s-.447 1-1 1z"/><path d="m43 27c-.256 0-.512-.098-.707-.293l-2-2c-.391-.391-.391-1.023 0-1.414s1.023-.391 1.414 0l1.293 1.293 3.293-3.293c.391-.391 1.023-.391 1.414 0s.391 1.023 0 1.414l-4 4c-.195.195-.451.293-.707.293z"/><path d="m58 26h-8c-.553 0-1-.447-1-1s.447-1 1-1h8c.553 0 1 .447 1 1s-.447 1-1 1z"/><path d="m13 53c-.256 0-.512-.098-.707-.293-.391-.391-.391-1.023 0-1.414l3.707-3.707v-7.586c0-.553.447-1 1-1s1 .447 1 1v8c0 .266-.105.52-.293.707l-4 4c-.195.195-.451.293-.707.293z"/><path d="m28 48c0 .553.447 1 1 1h1.95c.023-.332.05-.662.05-1s-.027-.668-.05-1h-1.95c-.553 0-1 .447-1 1z"/><path d="m17 59c-.553 0-1 .447-1 1v1.95c.332.023.662.05 1 .05s.668-.027 1-.05v-1.95c0-.553-.447-1-1-1z"/><path d="m3.05 49h1.95c.553 0 1-.447 1-1s-.447-1-1-1h-1.95c-.023.332-.05.662-.05 1s.027.668.05 1z"/><path d="m17 34c-.338 0-.668.027-1 .05v1.95c0 .553.447 1 1 1s1-.447 1-1v-1.95c-.332-.023-.662-.05-1-.05z"/></g><path d="m80.05 56c-.244 0-.488-.089-.682-.268-.404-.377-.427-1.009-.051-1.414l3.722-4c.378-.402 1.01-.425 1.414-.051.404.377.427 1.009.051 1.414l-3.722 4c-.197.212-.465.319-.732.319z" fill="#efefef"/><path d="m86 49.604c-.244 0-.488-.089-.682-.268-.404-.377-.427-1.01-.051-1.414l1-1.074c.378-.402 1.01-.425 1.414-.051.404.377.427 1.01.051 1.414l-1 1.074c-.197.212-.464.319-.732.319z" fill="#efefef"/><circle cx="17" cy="56" fill="#c9c7c6" r="1"/><circle cx="21" cy="56" fill="#c9c7c6" r="1"/><circle cx="13" cy="56" fill="#c9c7c6" r="1"/><path d="m49 80h-2c-1.103 0-2-.897-2-2s.897-2 2-2h2c1.103 0 2 .897 2 2 0 .553.447 1 1 1s1-.447 1-1c0-2.206-1.794-4-4-4v-1c0-.553-.447-1-1-1s-1 .447-1 1v1c-2.206 0-4 1.794-4 4s1.794 4 4 4h2c1.103 0 2 .897 2 2s-.897 2-2 2h-2c-1.103 0-2-.897-2-2 0-.553-.447-1-1-1s-1 .447-1 1c0 2.206 1.794 4 4 4v1c0 .553.447 1 1 1s1-.447 1-1v-1c2.206 0 4-1.794 4-4s-1.794-4-4-4z" fill="#e68f25"/></svg>