<?xml version="1.0" encoding="iso-8859-1"?>
<!-- Generator: Adobe Illustrator 19.0.0, SVG Export Plug-In . SVG Version: 6.00 Build 0)  -->
<svg version="1.1" id="Capa_1" xmlns="http://www.w3.org/2000/svg" xmlns:xlink="http://www.w3.org/1999/xlink" x="0px" y="0px"
	 viewBox="0 0 464 464" style="enable-background:new 0 0 464 464;" xml:space="preserve">
<path style="fill:#F9F6ED;" d="M56,232c0,97.202,78.798,176,176,176s176-78.798,176-176S329.202,56,232,56S56,134.798,56,232z"/>
<path style="fill:#F7D04F;" d="M0.56,216.56C0,221.68,0,226.8,0,232c0,128.13,103.87,232,232,232l-32-32l32-32
	c-92.784,0-168-75.216-168-168c0-5.68,0-11.28,0.88-16.88L32,248L0.56,216.56z"/>
<path style="fill:#1895AA;" d="M232,64l-32-32l32-32C109.881,0.024,8.687,94.712,0.56,216.56L32,248l32.88-32.88
	C73.545,129.32,145.764,64.015,232,64z"/>
<path style="fill:#EF9F35;" d="M463.44,216.56C455.313,94.712,354.119,0.024,232,0l-32,32l32,32
	c86.236,0.015,158.455,65.32,167.12,151.12L432,248L463.44,216.56z"/>
<g>
	<path style="fill:#63C8CD;" d="M463.44,216.56L432,248l-32.88-32.88c0.56,5.6,0.88,11.2,0.88,16.88c0,92.784-75.216,168-168,168
		l-32,32l32,32c128.13,0,232-103.87,232-232C464,226.8,464,221.68,463.44,216.56z"/>
	<path style="fill:#63C8CD;" d="M236,112c-46.374,0.044-83.956,37.626-84,84v2.72L132.88,256H168v48h64v32h88V196
		C319.956,149.626,282.374,112.044,236,112z"/>
</g>
<path style="fill:#1895AA;" d="M212,219.04c-8.489,0.007-16.634-3.36-22.64-9.36l11.36-11.36c6.241,6.204,16.319,6.204,22.56,0
	l11.36,11.36C228.634,215.68,220.489,219.047,212,219.04L212,219.04z"/>
<g>
</g>
<g>
</g>
<g>
</g>
<g>
</g>
<g>
</g>
<g>
</g>
<g>
</g>
<g>
</g>
<g>
</g>
<g>
</g>
<g>
</g>
<g>
</g>
<g>
</g>
<g>
</g>
<g>
</g>
</svg>
