<svg id="Layer_1_1_" enable-background="new 0 0 64 64" height="512" viewBox="0 0 64 64" width="512" xmlns="http://www.w3.org/2000/svg"><path d="m9 55h4v6h-4z" fill="#50b6cf"/><path d="m13 49h4v12h-4z" fill="#3cadc9"/><path d="m17 52h4v9h-4z" fill="#50b6cf"/><path d="m37 50h4v11h-4z" fill="#3cadc9"/><path d="m21 44h4v17h-4z" fill="#3cadc9"/><path d="m33 44h4v17h-4z" fill="#50b6cf"/><path d="m25 46h4v15h-4z" fill="#50b6cf"/><path d="m29 35h4v26h-4z" fill="#3cadc9"/><path d="m44 42h15v4h-15z" fill="#f09d3a"/><path d="m57 25c0-.55.22-1.05.59-1.41.36-.37.86-.59 1.41-.59 1.1 0 2 .9 2 2v15l-2 2h-15l-3-3v-6l4-5v-13c0-1.1.9-2 2-2 .55 0 1.05.22 1.41.59.37.36.59.86.59 1.41v10c0-1.1.9-2 2-2 .55 0 1.05.22 1.41.59.37.36.59.86.59 1.41 0-1.1.9-2 2-2 .55 0 1.05.22 1.41.59.37.36.59.86.59 1.41z" fill="#f5a947"/><path d="m41.83655 39.83655 2.16345 2.16345h15l2-2v-8.00006c-3.78741 4.13745-10.82593 7.12659-19.16345 7.83661z" fill="#f09d3a"/><path d="m4.96191 51.27441-1.92382-.54882 6.56445-22.97266 8.06348 11.08691 8.14843-24.44629 5.30957 10.61817 15.04395-22.56641 1.66406 1.10938-16.95605 25.43359-4.69043-9.38183-7.85157 23.55371-7.93652-10.91309z" fill="#e34e4b"/><path d="m48 10h-2v-5.67383l-5.72559 1.63574-.54882-1.92382 8.27441-2.36426z" fill="#e34e4b"/><path d="m51 39.41406-2.70703-2.70703 1.41406-1.41406 1.29297 1.29297 4.29297-4.29297 1.41406 1.41406z" fill="#223b5a"/><path d="m6 60h38v2h-38z" fill="#223b5a"/><g fill="#f09d3a"><path d="m45 28-1 1.25v3.75c0 .55228.44772 1 1 1 .55228 0 1-.44772 1-1v-5z"/><path d="m49 31c-.55228 0-1-.44771-1-1v-4c0-.55228.44772-1 1-1 .55228 0 1 .44771 1 1v4c0 .55229-.44772 1-1 1z"/><path d="m53 31c-.55228 0-1-.44771-1-1v-4c0-.55228.44772-1 1-1 .55228 0 1 .44771 1 1v4c0 .55229-.44772 1-1 1z"/><path d="m57 31c-.55228 0-1-.44771-1-1v-4c0-.55228.44772-1 1-1 .55228 0 1 .44771 1 1v4c0 .55229-.44772 1-1 1z"/></g></svg>