<svg id="Capa_1" enable-background="new 0 0 512 512" height="512" viewBox="0 0 512 512" width="512" xmlns="http://www.w3.org/2000/svg"><g><g><g><g><g><g><g><g><g><circle cx="256" cy="256" fill="#64e1dc" r="256"/></g></g></g></g></g></g></g></g><path d="m512 256c0-10.322-.611-20.501-1.799-30.503l-105.384-105.384-326.282 236.473 154.388 154.388c7.602.679 15.299 1.026 23.077 1.026 141.385 0 256-114.615 256-256z" fill="#00c8c8"/><g><path d="m412.496 345.967h-312.992v-205.847c0-16.521 13.393-29.914 29.914-29.914h253.165c16.521 0 29.914 13.393 29.914 29.914v205.847z" fill="#636978"/></g><g><path d="m412.496 140.12c0-16.521-13.393-29.914-29.914-29.914h-126.461v235.761h156.376v-205.847z" fill="#414952"/></g><g><path d="m122.877 136.289h266.247v196.128h-266.247z" fill="#fff"/></g><g><path d="m256.121 136.289h133.003v196.128h-133.003z" fill="#e9edf5"/></g><g><path d="m413.476 365.952h-314.952c-14.37 0-26.019-11.649-26.019-26.019v-20.727h366.989v20.727c0 14.37-11.648 26.019-26.018 26.019z" fill="#414952"/></g><g><path d="m256.121 319.207v46.746h157.355c14.37 0 26.019-11.649 26.019-26.019v-20.727z" fill="#23272b"/></g><g><path d="m348.35 176.009-41.316 17.15v-9.956c0-10.556-8.557-19.113-19.113-19.113h-105.158c-10.556 0-19.113 8.557-19.113 19.113v89.767c0 10.556 8.557 19.113 19.113 19.113h105.158c10.556 0 19.113-8.557 19.113-19.113v-9.956l41.316 17.15z" fill="#414952"/></g><g><path d="m307.034 193.159v-9.956c0-10.556-8.557-19.113-19.113-19.113h-31.801v127.992h31.801c10.556 0 19.113-8.557 19.113-19.113v-9.956l41.316 17.15v-104.154z" fill="#23272b"/></g></g></svg>